<?xml version="1.0" encoding="UTF-8" standalone="no"?>
<svg xmlns="http://www.w3.org/2000/svg" version="1.2" xmlns:xlink="http://www.w3.org/1999/xlink" width="535.0" height="80.0"><defs><symbol id="sharp" class="marker-def sharp-arrow-marker" style="overflow:visible;"><path d="M 0 0 L -3.6666667461395264 4.0 L 7.333333492279053 0 L -3.6666667461395264 -4.0 z"></path></symbol></defs><g data-dali-layout-tag="matrix" transform="translate(20.0 20.0)"><g data-dali-layout-tag="align"><rect x="0" y="0" width="36" height="20" id="|SA" stroke-width="3" fill="white"></rect><text fill="black" font-family="Verdana" font-size="14" transform="translate(0.31201171875 13.978515625)">X|SA</text></g><g data-dali-layout-tag="align" transform="translate(56.0 0.0)"><rect x="0" y="0" width="63" height="20" id="|NAM" stroke-width="3" fill="white"></rect><text fill="black" font-family="Verdana" font-size="14" transform="translate(2.1533203125 13.978515625)">wir|NAM</text></g><g data-dali-layout-tag="align" transform="translate(148.0 0.0)"><rect x="0" y="0" width="81" height="20" id="|MV" stroke-width="3" fill="white"></rect><text fill="black" font-family="Verdana" font-size="14" transform="translate(0.5849609375 13.978515625)">werden|MV</text></g><g data-dali-layout-tag="align" transform="translate(262.5 0.0)"><rect x="0" y="0" width="117" height="20" id="|ADJ" stroke-width="3" fill="white"></rect><text fill="black" font-family="Verdana" font-size="14" transform="translate(9.5 13.871419429779053)">geschickt|ADJ</text></g><g data-dali-layout-tag="align" transform="translate(404.0 0.0)"><rect x="0" y="0" width="36" height="20" id="&amp;dot|SZ" stroke-width="3" fill="white"></rect><text fill="black" font-family="Verdana" font-size="14" transform="translate(2.221517562866211 13.978515625)">.|SZ</text></g><g data-dali-layout-tag="align" transform="translate(460.0 0.0)"><rect x="0" y="0" width="45" height="20" id="&amp;slashX|SE" stroke-width="3" fill="white"></rect><text fill="black" font-family="Verdana" font-size="14" transform="translate(2.626791000366211 13.978515625)">/X|SE</text></g><g data-dali-layout-tag="align" transform="translate(139.0 30.0)"><rect x="0" y="0" width="99" height="20" id="|KOPV" stroke-width="3" fill="white"></rect><text fill="black" font-family="Verdana" font-size="14" transform="translate(0.9033203125 13.978515625)">werden|KOPV</text></g><g data-dali-layout-tag="align" transform="translate(258.0 30.0)"><rect x="0" y="0" width="126" height="20" id="|PART" stroke-width="3" fill="white"></rect><text fill="black" font-family="Verdana" font-size="14" transform="translate(8.54150390625 13.871419429779053)">geschickt|PART</text></g></g><g data-dali-layout-tag="connect"><g><polyline points="56.0,30.0 68.66666650772095,30.0" class="connector" stroke="red" stroke-width="2.5"></polyline><use xlink:href="#sharp" class="marker marker-end" transform="translate(68.66666650772095 30.0) rotate(0.0)" style="fill: red;"></use></g></g><g data-dali-layout-tag="connect"><g><polyline points="139.0,30.0 160.66666650772095,30.0" class="connector" stroke="black" stroke-width="2.5"></polyline><use xlink:href="#sharp" class="marker marker-end" transform="translate(160.66666650772095 30.0) rotate(0.0)"></use></g></g><g data-dali-layout-tag="connect"><g><polyline points="139.0,30.0 154.93219847284777,53.898297709271645" class="connector" stroke="red" stroke-width="2.5"></polyline><use xlink:href="#sharp" class="marker marker-end" transform="translate(154.93219847284777 53.898297709271645) rotate(56.309932474020215)" style="fill: red;"></use></g></g><g data-dali-layout-tag="connect"><g><polyline points="258.0,60.0 277.8614130464702,35.67990239207727" class="connector" stroke="black" stroke-width="2.5"></polyline><use xlink:href="#sharp" class="marker marker-end" transform="translate(277.8614130464702 35.67990239207727) rotate(-50.762632886598446)"></use></g></g><g data-dali-layout-tag="connect"><g><polyline points="258.0,60.0 270.66666650772095,60.0" class="connector" stroke="red" stroke-width="2.5"></polyline><use xlink:href="#sharp" class="marker marker-end" transform="translate(270.66666650772095 60.0) rotate(0.0)" style="fill: red;"></use></g></g><g data-dali-layout-tag="connect"><g><polyline points="249.0,30.0 275.16666650772095,30.0" class="connector" stroke="black" stroke-width="2.5"></polyline><use xlink:href="#sharp" class="marker marker-end" transform="translate(275.16666650772095 30.0) rotate(0.0)"></use></g></g><g data-dali-layout-tag="connect"><g><polyline points="249.0,30.0 272.90317117931437,54.72741846135972" class="connector" stroke="black" stroke-width="2.5"></polyline><use xlink:href="#sharp" class="marker marker-end" transform="translate(272.90317117931437 54.72741846135972) rotate(45.97102193107917)"></use></g></g><g data-dali-layout-tag="connect"><g><polyline points="404.0,60.0 419.93219847284774,36.101702290728355" class="connector" stroke="red" stroke-width="2.5"></polyline><use xlink:href="#sharp" class="marker marker-end" transform="translate(419.93219847284774 36.101702290728355) rotate(-56.309932474020215)" style="fill: red;"></use></g></g><g data-dali-layout-tag="connect"><g><polyline points="399.5,30.0 416.66666650772095,30.0" class="connector" stroke="black" stroke-width="2.5"></polyline><use xlink:href="#sharp" class="marker marker-end" transform="translate(416.66666650772095 30.0) rotate(0.0)"></use></g></g><g data-dali-layout-tag="connect"><g><polyline points="460.0,30.0 472.66666650772095,30.0" class="connector" stroke="red" stroke-width="2.5"></polyline><use xlink:href="#sharp" class="marker marker-end" transform="translate(472.66666650772095 30.0) rotate(0.0)" style="fill: red;"></use></g></g></svg>